<?xml version="1.0" encoding="UTF-8"?>
<!-- Generator: visioncortex VTracer 0.6.4 -->
<svg version="1.1" xmlns="http://www.w3.org/2000/svg" width="256" height="128">
<path d="M0 0 C84.48 0 168.96 0 256 0 C256 42.24 256 84.48 256 128 C171.52 128 87.04 128 0 128 C0 85.76 0 43.52 0 0 Z " fill="#F5D7CE" transform="translate(0,0)"/>
<path d="M0 0 C24.42 0 48.84 0 74 0 C72 5 72 5 70 8 C71.26457031 7.97679687 72.52914062 7.95359375 73.83203125 7.9296875 C75.4921816 7.91092874 77.15233833 7.89272865 78.8125 7.875 C80.06256836 7.84986328 80.06256836 7.84986328 81.33789062 7.82421875 C82.14033203 7.81777344 82.94277344 7.81132813 83.76953125 7.8046875 C84.50792236 7.79421387 85.24631348 7.78374023 86.00708008 7.77294922 C88 8 88 8 91 10 C91 10.66 91 11.32 91 12 C86.08497242 13.29235715 81.22709898 13.11135517 76.1875 13.0625 C74.86202148 13.05573242 74.86202148 13.05573242 73.50976562 13.04882812 C71.33981441 13.03709866 69.16989828 13.01916495 67 13 C66.73062622 13.86032837 66.73062622 13.86032837 66.45581055 14.73803711 C64.9041586 19.56122628 63.14679828 24.04952333 60.8125 28.5625 C60.28269531 29.59503906 59.75289062 30.62757812 59.20703125 31.69140625 C58.80871094 32.45324219 58.41039062 33.21507812 58 34 C58.99 33.67 59.98 33.34 61 33 C72.82738312 30.10606583 85.80251427 31.12803853 96.33984375 37.390625 C100.59975906 40.40509021 103.84661212 43.86117841 107 48 C106.505 48.99 106.505 48.99 106 50 C105.56171875 49.55269531 105.1234375 49.10539062 104.671875 48.64453125 C96.17906412 40.54874202 85.58319599 36.59231681 73.890625 36.71484375 C65.99962958 37.49327978 58.2122302 40.03021584 52 45 C51.175 45.53625 50.35 46.0725 49.5 46.625 C42.39463812 53.37509379 38.96520342 62.23501076 38.375 71.875 C38.30023438 73.02742188 38.22546875 74.17984375 38.1484375 75.3671875 C38.09945312 76.23601562 38.05046875 77.10484375 38 78 C33.545 78.495 33.545 78.495 29 79 C30.96892654 96.20220028 34.92439288 111.79838101 41 128 C27.47 128 13.94 128 0 128 C0 85.76 0 43.52 0 0 Z " fill="#D11D68" transform="translate(0,0)"/>
<path d="M0 0 C24.09 0 48.18 0 73 0 C73 42.24 73 84.48 73 128 C61.12 128 49.24 128 37 128 C37.99 124.7 38.98 121.4 40 118 C43.74416521 104.79033379 46.9228063 91.57464307 49 78 C44.05 78.495 44.05 78.495 39 79 C38.83564453 77.515 38.83564453 77.515 38.66796875 76 C37.19989469 63.44422896 34.92978072 53.86435913 24.96484375 45.23828125 C15.81854248 38.64829649 5.21253653 35.57664692 -6 37 C-18.52791869 39.77359394 -25.69465395 45.72685711 -33 56 C-33.33 55.34 -33.66 54.68 -34 54 C-29.3296094 43.83304861 -22.0040733 37.96185222 -11.9375 33.5625 C-3.39381777 30.7023832 7.29933676 30.90160475 16 33 C15.04381086 30.5824652 14.08513489 28.16596734 13.125 25.75 C12.85558594 25.06808594 12.58617187 24.38617187 12.30859375 23.68359375 C10.9939219 20.38088155 9.61848745 17.16368491 8 14 C7.34926514 13.97494385 6.69853027 13.9498877 6.02807617 13.92407227 C3.08101954 13.80806298 0.1342787 13.68535885 -2.8125 13.5625 C-3.83666016 13.52318359 -4.86082031 13.48386719 -5.91601562 13.44335938 C-6.89892578 13.40146484 -7.88183594 13.35957031 -8.89453125 13.31640625 C-10.25348511 13.26141968 -10.25348511 13.26141968 -11.63989258 13.20532227 C-14 13 -14 13 -17 12 C-17 11.01 -17 10.02 -17 9 C-14.70691037 7.85345518 -13.20090344 7.80270883 -10.6484375 7.68359375 C-9.79765625 7.64169922 -8.946875 7.59980469 -8.0703125 7.55664062 C-6.73613281 7.49766602 -6.73613281 7.49766602 -5.375 7.4375 C-4.4778125 7.39431641 -3.580625 7.35113281 -2.65625 7.30664062 C-0.43765717 7.20043139 1.7810488 7.09838806 4 7 C3.34 6.21625 2.68 5.4325 2 4.625 C0 2 0 2 0 0 Z " fill="#D73C74" transform="translate(183,0)"/>
<path d="M0 0 C5.82752994 4.47416944 10.26070555 9.77274543 12 17 C13.10552978 25.98111336 12.48341847 33.60068833 7 41 C0.30918484 48.25410761 -6.79459591 51.84733892 -16.625 52.3125 C-24.68348437 52.20441303 -32.65143899 49.47643394 -38.49609375 43.80078125 C-44.4546054 36.66604392 -45.83489062 29.84413803 -45.47265625 20.62109375 C-44.32570222 11.83409884 -40.09328168 6.14355408 -33.30859375 0.62890625 C-23.54557258 -6.2597229 -10.18683075 -6.18175199 0 0 Z " fill="#030001" transform="translate(93,48)"/>
<path d="M0 0 C5.33738756 4.93371959 8.36366288 11.69152636 9.328125 18.80078125 C9.59973388 28.45259698 8.14647041 35.50883788 1.75 42.8125 C-5.0288598 49.01443556 -13.43570209 50.67507192 -22.40234375 50.31640625 C-30.47314212 49.39952733 -37.61545493 45.44923082 -42.73046875 39.078125 C-47.73828067 31.50032163 -49.35108543 23.65893446 -47.79296875 14.7421875 C-45.69090822 6.95778269 -40.33555382 0.6180192 -33.4375 -3.5 C-21.83892152 -8.85319007 -10.39164197 -6.52024594 0 0 Z " fill="#030001" transform="translate(202.1875,50)"/>
<path d="M0 0 C23.76 0 47.52 0 72 0 C72 21.68712575 72 21.68712575 64.3125 31.0625 C58.2800562 37.0838751 52.80703809 39.18285584 44.3125 39.5625 C32.63169001 39.18407203 22.44266137 35.05429895 14 27 C13.06414062 26.12408203 13.06414062 26.12408203 12.109375 25.23046875 C5.35707869 18.25798887 1.57969793 9.4781876 0 0 Z " fill="#D11C68" transform="translate(91,0)"/>
<path d="M0 0 C1.2065625 0.0309375 1.2065625 0.0309375 2.4375 0.0625 C1.31298273 3.0344385 0.21456209 5.39690687 -1.5625 8.0625 C-0.29792969 8.03929687 0.96664062 8.01609375 2.26953125 7.9921875 C3.9296816 7.97342874 5.58983833 7.95522865 7.25 7.9375 C8.50006836 7.91236328 8.50006836 7.91236328 9.77539062 7.88671875 C10.57783203 7.88027344 11.38027344 7.87382813 12.20703125 7.8671875 C12.94542236 7.85671387 13.68381348 7.84624023 14.44458008 7.83544922 C16.4375 8.0625 16.4375 8.0625 19.4375 10.0625 C19.4375 10.7225 19.4375 11.3825 19.4375 12.0625 C14.52247242 13.35485715 9.66459898 13.17385517 4.625 13.125 C3.29952148 13.11823242 3.29952148 13.11823242 1.94726562 13.11132812 C-0.22268559 13.09959866 -2.39260172 13.08166495 -4.5625 13.0625 C-4.83187378 13.92282837 -4.83187378 13.92282837 -5.10668945 14.80053711 C-6.6583414 19.62372628 -8.41570172 24.11202333 -10.75 28.625 C-11.27980469 29.65753906 -11.80960938 30.69007812 -12.35546875 31.75390625 C-12.75378906 32.51574219 -13.15210938 33.27757812 -13.5625 34.0625 C-12.5725 33.7325 -11.5825 33.4025 -10.5625 33.0625 C1.26488312 30.16856583 14.24001427 31.19053853 24.77734375 37.453125 C29.03725906 40.46759021 32.28411212 43.92367841 35.4375 48.0625 C34.9425 49.0525 34.9425 49.0525 34.4375 50.0625 C33.99921875 49.61519531 33.5609375 49.16789062 33.109375 48.70703125 C24.61656412 40.61124202 14.02069599 36.65481681 2.328125 36.77734375 C-5.56287042 37.55577978 -13.3502698 40.09271584 -19.5625 45.0625 C-20.3875 45.59875 -21.2125 46.135 -22.0625 46.6875 C-29.16786188 53.43759379 -32.59729658 62.29751076 -33.1875 71.9375 C-33.26226562 73.08992188 -33.33703125 74.24234375 -33.4140625 75.4296875 C-33.46304688 76.29851562 -33.51203125 77.16734375 -33.5625 78.0625 C-38.0175 78.5575 -38.0175 78.5575 -42.5625 79.0625 C-40.60171363 96.19358096 -36.72860445 111.96823332 -30.5625 128.0625 C-32.2125 128.0625 -33.8625 128.0625 -35.5625 128.0625 C-39.66105021 119.71360142 -42.26948935 111.04360989 -44.5625 102.0625 C-44.76439941 101.28342285 -44.96629883 100.5043457 -45.17431641 99.70166016 C-48.33340355 86.95905846 -48.93400922 74.43749703 -48.9375 61.375 C-48.93940338 60.58812805 -48.94130676 59.8012561 -48.94326782 58.99053955 C-48.94265017 56.73940239 -48.92473667 54.48925207 -48.8984375 52.23828125 C-48.88345215 50.92770752 -48.8684668 49.61713379 -48.85302734 48.2668457 C-48.5625 45.0625 -48.5625 45.0625 -46.5625 42.0625 C-45.77875 42.3925 -44.995 42.7225 -44.1875 43.0625 C-38.84085988 44.53743521 -33.59678391 45.44617704 -28.38671875 43.0703125 C-19.12970185 36.7072368 -14.88388573 26.99871982 -11.046875 16.84375 C-4.65303537 0.11348867 -4.65303537 0.11348867 0 0 Z " fill="#0B0205" transform="translate(71.5625,-0.0625)"/>
<path d="M0 0 C2.77734375 -0.30078125 2.77734375 -0.30078125 6 0 C12.92339116 7.20199845 17.43679852 18.55473595 19.1875 28.25 C20.28067474 33.06990681 21.58129625 34.99583895 25.6875 37.75 C26.57179687 38.28238281 27.45609375 38.81476562 28.3671875 39.36328125 C35.09978418 43.54867889 40.5244894 49.88188694 44 57 C44 57.66 44 58.32 44 59 C47.72614153 57.88145414 47.72614153 57.88145414 50 55 C50.2275015 53.12943209 50.40962811 51.25314042 50.5625 49.375 C50.68818359 47.87066406 50.68818359 47.87066406 50.81640625 46.3359375 C50.87699219 45.56507812 50.93757813 44.79421875 51 44 C51.99 43.67 52.98 43.34 54 43 C63.1528874 61.30577481 51.24661987 98.11180917 45.828125 116.53613281 C44.50059849 120.48583727 42.80089832 124.246224 41 128 C39.68 128 38.36 128 37 128 C37.18175781 127.40646729 37.36351562 126.81293457 37.55078125 126.20141602 C42.36452971 110.33918911 46.49127751 94.39472153 49 78 C44.05 78.495 44.05 78.495 39 79 C38.83564453 77.515 38.83564453 77.515 38.66796875 76 C37.19989469 63.44422896 34.92978072 53.86435913 24.96484375 45.23828125 C15.81854248 38.64829649 5.21253653 35.57664692 -6 37 C-18.52791869 39.77359394 -25.69465395 45.72685711 -33 56 C-33.33 55.34 -33.66 54.68 -34 54 C-29.3296094 43.83304861 -22.0040733 37.96185222 -11.9375 33.5625 C-3.39381777 30.7023832 7.29933676 30.90160475 16 33 C15.04381086 30.5824652 14.08513489 28.16596734 13.125 25.75 C12.85558594 25.06808594 12.58617187 24.38617187 12.30859375 23.68359375 C10.9939219 20.38088155 9.61848745 17.16368491 8 14 C7.34926514 13.97494385 6.69853027 13.9498877 6.02807617 13.92407227 C3.08101954 13.80806298 0.1342787 13.68535885 -2.8125 13.5625 C-3.83666016 13.52318359 -4.86082031 13.48386719 -5.91601562 13.44335938 C-6.89892578 13.40146484 -7.88183594 13.35957031 -8.89453125 13.31640625 C-10.25348511 13.26141968 -10.25348511 13.26141968 -11.63989258 13.20532227 C-14 13 -14 13 -17 12 C-17 11.01 -17 10.02 -17 9 C-14.70691037 7.85345518 -13.20090344 7.80270883 -10.6484375 7.68359375 C-9.79765625 7.64169922 -8.946875 7.59980469 -8.0703125 7.55664062 C-6.73613281 7.49766602 -6.73613281 7.49766602 -5.375 7.4375 C-4.4778125 7.39431641 -3.580625 7.35113281 -2.65625 7.30664062 C-0.43765717 7.20043139 1.7810488 7.09838806 4 7 C3.34 6.21625 2.68 5.4325 2 4.625 C0 2 0 2 0 0 Z " fill="#150B0E" transform="translate(183,0)"/>
<path d="M0 0 C1.32 0 2.64 0 4 0 C4.29132813 0.76183594 4.58265625 1.52367188 4.8828125 2.30859375 C9.88516827 14.90886723 16.22762802 25.44823126 29.015625 31.22265625 C37.20133162 34.4292618 47.0991238 36.06233085 55.4375 32.5 C61.48070943 28.95699572 64.24867015 22.53621319 66 16 C66.22168219 13.20100336 66.19094884 10.43036234 66.125 7.625 C66.11597656 6.88894531 66.10695313 6.15289062 66.09765625 5.39453125 C66.07430144 3.5962112 66.03843836 1.79806089 66 0 C67.98 0 69.96 0 72 0 C72.66818906 11.34065324 71.75539421 21.9854374 64.3125 31.0625 C58.2800562 37.0838751 52.80703809 39.18285584 44.3125 39.5625 C32.63169001 39.18407203 22.44266137 35.05429895 14 27 C13.06414062 26.12408203 13.06414062 26.12408203 12.109375 25.23046875 C5.50805959 18.41389305 1.21314758 9.39484055 0 0 Z " fill="#0F0207" transform="translate(91,0)"/>
<path d="M0 0 C0.96292969 -0.01224609 1.92585938 -0.02449219 2.91796875 -0.03710938 C3.84222656 -0.03904297 4.76648438 -0.04097656 5.71875 -0.04296875 C6.9862207 -0.04913208 6.9862207 -0.04913208 8.27929688 -0.05541992 C10.5 0.1875 10.5 0.1875 13.5 2.1875 C14.23046875 4.17578125 14.23046875 4.17578125 14.6875 6.5 C14.84605469 7.25925781 15.00460938 8.01851563 15.16796875 8.80078125 C15.5 11.1875 15.5 11.1875 15.5 16.1875 C4.94 16.1875 -5.62 16.1875 -16.5 16.1875 C-15.5 5.1875 -15.5 5.1875 -13.5 1.1875 C-9.04253884 -0.29832039 -4.66868558 0.00312496 0 0 Z " fill="#DC497B" transform="translate(129.5,111.8125)"/>
<path d="M0 0 C3.21152592 2.72979703 3.89433954 4.34255711 4.5625 8.5 C3.84946388 12.93666918 2.55047235 14.31742089 -1 17 C-5.15679825 18.59876856 -7.98452406 17.74585911 -12 16 C-14.25082318 14.37009356 -14.88995838 13.29082429 -15.875 10.6875 C-16.0473821 6.98128482 -15.01328893 5.08704302 -13 2 C-8.95260432 -1.58483617 -4.96743535 -1.68000945 0 0 Z " fill="#F9F1F1" transform="translate(82,57)"/>
<path d="M0 0 C3.21152592 2.72979703 3.89433954 4.34255711 4.5625 8.5 C3.84539972 12.96195728 2.60549148 14.33507152 -1 17 C-4.83050005 18.30400002 -6.45733544 18.20871714 -10.25 16.75 C-13 15 -13 15 -15 12 C-15.4375 8.625 -15.4375 8.625 -15 5 C-10.43075563 -0.53119055 -6.99142485 -1.9896545 0 0 Z " fill="#F9F1F0" transform="translate(188,57)"/>
<path d="M0 0 C0.96292969 -0.01224609 1.92585938 -0.02449219 2.91796875 -0.03710938 C3.84222656 -0.03904297 4.76648438 -0.04097656 5.71875 -0.04296875 C6.9862207 -0.04913208 6.9862207 -0.04913208 8.27929688 -0.05541992 C10.5 0.1875 10.5 0.1875 13.5 2.1875 C15.1289229 6.62130618 15.80386111 11.47765283 15.5 16.1875 C14.18 16.1875 12.86 16.1875 11.5 16.1875 C10.84 12.2275 10.18 8.2675 9.5 4.1875 C2.57 4.1875 -4.36 4.1875 -11.5 4.1875 C-11.83 8.1475 -12.16 12.1075 -12.5 16.1875 C-13.82 16.1875 -15.14 16.1875 -16.5 16.1875 C-16.38529863 14.43679483 -16.25780972 12.68692464 -16.125 10.9375 C-16.05539063 9.96296875 -15.98578125 8.9884375 -15.9140625 7.984375 C-15.50829564 5.24353469 -15.04377872 3.47691334 -13.5 1.1875 C-9.04253884 -0.29832039 -4.66868558 0.00312496 0 0 Z " fill="#15040A" transform="translate(129.5,111.8125)"/>
<path d="M0 0 C3.4375 0.8125 3.4375 0.8125 5.4375 3.8125 C5.94201649 7.09185719 5.71272753 8.39415416 3.875 11.1875 C1.4375 12.8125 1.4375 12.8125 -2.1875 12.8125 C-5.5625 11.8125 -5.5625 11.8125 -7.0625 10.125 C-7.73100561 7.03316157 -7.42013141 4.84719577 -6.5625 1.8125 C-3.5625 -0.1875 -3.5625 -0.1875 0 0 Z " fill="#D9547C" transform="translate(196.5625,77.1875)"/>
<path d="M0 0 C1.875 1.6875 1.875 1.6875 3 4 C2.875 7.125 2.875 7.125 2 10 C-1 12 -1 12 -4.5625 11.75 C-8 11 -8 11 -10 9 C-10.4375 5.5625 -10.4375 5.5625 -10 2 C-6.68306468 -1.03262658 -4.19171953 -1.65462613 0 0 Z " fill="#DA587E" transform="translate(68,78)"/>
<path d="M0 0 C1.8125 1.1875 1.8125 1.1875 3 3 C3.39365568 6.14924548 3.52854531 8.11909116 1.875 10.875 C-0.88090884 12.52854531 -2.85075452 12.39365568 -6 12 C-8.08477638 10.56222319 -8.81239178 9.40201761 -9.875 7.125 C-10.05721664 4.02731712 -8.79186662 2.45552093 -7 0 C-4.26634878 -1.36682561 -2.89333621 -0.84683011 0 0 Z " fill="#DA567D" transform="translate(175,78)"/>
<path d="M0 0 C1.41441874 2.82883747 1.31900332 4.87376745 1 8 C-1.11689705 10.35210784 -2.44041515 10.91810953 -5.5625 11.375 C-8 11 -8 11 -9.8125 9.9375 C-11.71096021 6.84001228 -11.50468055 4.53276383 -11 1 C-7.19776074 -2.69040869 -4.59477125 -2.192959 0 0 Z " fill="#DA577D" transform="translate(93,79)"/>
<path d="M0 0 C2.97 0.99 5.94 1.98 9 3 C7.12927965 7.71144385 5.17518066 12.38615354 3.21875 17.0625 C2.12435744 19.70026668 1.05386322 22.34582596 0 25 C-0.33 25 -0.66 25 -1 25 C-1.02727345 22.33326258 -1.04696948 19.66681131 -1.0625 17 C-1.07087891 16.25621094 -1.07925781 15.51242188 -1.08789062 14.74609375 C-1.10966272 9.73851156 -0.71541549 4.95720968 0 0 Z " fill="#EBA2A4" transform="translate(28,46)"/>
</svg>
