<?xml version="1.0" encoding="UTF-8"?>
<!-- Generator: visioncortex VTracer 0.6.4 -->
<svg version="1.1" xmlns="http://www.w3.org/2000/svg" width="256" height="128">
<path d="M0 0 C84.48 0 168.96 0 256 0 C256 42.24 256 84.48 256 128 C171.52 128 87.04 128 0 128 C0 85.76 0 43.52 0 0 Z " fill="#09090A" transform="translate(0,0)"/>
<path d="M0 0 C2.26404098 0.02994699 4.51671157 -0.02004043 6.7800293 -0.07739258 C17.23094735 -0.14756841 17.23094735 -0.14756841 21.28417969 2.67407227 C23.03418096 4.68441396 24.44044944 6.6996503 25.83276367 8.9675293 C33.55774656 17.01380442 43.38434065 23.0788305 53.83276367 26.9675293 C53.83276367 27.2975293 53.83276367 27.6275293 53.83276367 27.9675293 C53.09670898 28.02811523 52.3606543 28.08870117 51.60229492 28.15112305 C50.62647461 28.23491211 49.6506543 28.31870117 48.64526367 28.4050293 C47.68233398 28.48624023 46.7194043 28.56745117 45.72729492 28.65112305 C43.04626766 28.9441908 40.46646507 29.39456684 37.83276367 29.9675293 C38.32776367 31.4525293 38.32776367 31.4525293 38.83276367 32.9675293 C39.69562988 32.72305054 39.69562988 32.72305054 40.57592773 32.47363281 C42.78984474 31.97715402 44.67950164 31.85273186 46.94213867 31.86987305 C47.69624023 31.8730957 48.4503418 31.87631836 49.22729492 31.87963867 C50.39325195 31.89220703 50.39325195 31.89220703 51.58276367 31.9050293 C52.37553711 31.90954102 53.16831055 31.91405273 53.98510742 31.91870117 C55.93435875 31.93044365 57.88357105 31.94837784 59.83276367 31.9675293 C59.83276367 31.3075293 59.83276367 30.6475293 59.83276367 29.9675293 C62.14276367 30.2975293 64.45276367 30.6275293 66.83276367 30.9675293 C64.89419805 27.3811829 63.11030497 25.34092127 59.83276367 22.9675293 C59.83276367 22.3075293 59.83276367 21.6475293 59.83276367 20.9675293 C58.34776367 20.4725293 58.34776367 20.4725293 56.83276367 19.9675293 C55.01521827 17.8122353 53.31665679 15.6677284 51.64526367 13.4050293 C51.1818457 12.78950195 50.71842773 12.17397461 50.2409668 11.53979492 C49.09853142 10.02047365 47.9648021 8.49461303 46.83276367 6.9675293 C49.83276367 6.9675293 49.83276367 6.9675293 51.30541992 8.4362793 C51.83006836 9.1065918 52.3547168 9.7769043 52.89526367 10.4675293 C63.47569341 22.94589179 79.20278187 31.93710326 93.83276367 38.9675293 C93.20119372 44.02008893 91.69816994 48.26346131 89.83276367 52.9675293 C93.56155589 52.64791853 94.6838409 52.1238982 97.33276367 49.3425293 C99.83276367 46.9675293 99.83276367 46.9675293 102.52026367 46.9050293 C104.83276367 47.9675293 104.83276367 47.9675293 106.14526367 49.5925293 C107.90607367 55.67532748 106.73021261 60.42459518 104.02026367 65.94799805 C102.29643634 68.87963861 100.84889587 70.35892546 97.83276367 71.9675293 C96.3537593 71.98944047 94.8742971 71.98738209 93.39526367 71.9675293 C91.00377298 72.01230147 91.00377298 72.01230147 88.83276367 72.9675293 C86.95721881 75.75103964 85.74197206 78.61504725 84.41088867 81.6940918 C79.04548486 92.8233205 68.65626367 100.42816892 57.26660156 104.48364258 C48.64389871 107.37947875 39.99326782 109.9675293 30.83276367 109.9675293 C31.01194336 108.95432617 31.19112305 107.94112305 31.37573242 106.8972168 C31.5915814 105.54581447 31.80636901 104.19424232 32.02026367 102.8425293 C32.20105469 101.84479492 32.20105469 101.84479492 32.38549805 100.8269043 C33.14477514 95.83037114 32.22246327 93.30800408 29.83276367 88.9675293 C29.74229621 86.12018489 30.29627323 83.7962971 30.83276367 80.9675293 C22.58750146 79.02289198 12.74770396 78.65429848 4.83276367 81.9675293 C4.50276367 82.6275293 4.17276367 83.2875293 3.83276367 83.9675293 C7.07599502 85.04860641 7.71232709 84.83065243 10.83276367 83.9675293 C13.59246775 83.89825962 16.32472409 83.8733557 19.08276367 83.9050293 C19.8278418 83.90954102 20.57291992 83.91405273 21.34057617 83.91870117 C23.17134007 83.93043684 25.0020624 83.9483708 26.83276367 83.9675293 C26.83276367 84.9575293 26.83276367 85.9475293 26.83276367 86.9675293 C24.85276367 87.9575293 22.87276367 88.9475293 20.83276367 89.9675293 C20.33776367 89.4725293 19.84276367 88.9775293 19.33276367 88.4675293 C15.841859 86.37298649 12.81339164 86.21910544 8.83276367 86.9675293 C6.49943034 88.63419596 6.49943034 88.63419596 4.83276367 90.9675293 C1.58338043 94.75847641 -0.32481103 95.17692925 -5.16723633 95.9675293 C-6.03348633 96.6687793 -6.89973633 97.3700293 -7.79223633 98.0925293 C-10.16723633 99.9675293 -10.16723633 99.9675293 -12.16723633 100.0300293 C-15.07882642 98.48324706 -16.95604112 96.39984403 -19.16723633 93.9675293 C-19.84786133 93.2662793 -20.52848633 92.5650293 -21.22973633 91.8425293 C-26.7967249 83.58183657 -27.53201964 75.42317533 -27.80249023 65.73706055 C-27.98586311 59.98923232 -28.6163498 54.5440609 -29.72973633 48.9050293 C-32.40701898 34.83192617 -31.17275239 24.415731 -23.22973633 12.0925293 C-22.25302867 10.68584246 -21.22442108 9.31478061 -20.16723633 7.9675293 C-19.85375244 7.3799585 -19.54026855 6.7923877 -19.21728516 6.18701172 C-14.74761217 -0.87656359 -7.52250577 -0.12808084 0 0 Z " fill="#F5EEDA" transform="translate(97.167236328125,-0.967529296875)"/>
<path d="M0 0 C16.17 0 32.34 0 49 0 C48.34 3.63 47.68 7.26 47 11 C46.49764491 15.32688867 46.22460582 19.65031655 46 24 C45.95746094 24.79664062 45.91492187 25.59328125 45.87109375 26.4140625 C45.60205913 36.85260567 47.16913601 47.49813435 49.046875 57.7421875 C52.29083931 76.92322857 52.11414996 100.21265707 41 117 C39.53515625 118.5390625 39.53515625 118.5390625 38.125 119.8125 C37.073125 120.8953125 37.073125 120.8953125 36 122 C35.895403 124.73295895 35.895403 124.73295895 37 127 C37.99 127.495 37.99 127.495 39 128 C26.13 128 13.26 128 0 128 C0 85.76 0 43.52 0 0 Z " fill="#FCFCFC" transform="translate(0,0)"/>
<path d="M0 0 C12.21 0 24.42 0 37 0 C37 42.24 37 84.48 37 128 C30.07 128 23.14 128 16 128 C11.97634392 123.70447527 10.74616507 122.17107571 9 117 C8.67644531 116.24847656 8.35289062 115.49695313 8.01953125 114.72265625 C3.02046786 102.11938376 3.17440248 87.70680119 4.72094727 74.46459961 C7.69648005 48.85106766 6.25177569 25.00710276 0 0 Z " fill="#FCFCFC" transform="translate(219,0)"/>
<path d="M0 0 C-0.41504468 2.9744869 -0.80311917 5.57149466 -2.0625 8.3125 C-4.02689913 13.94377749 -3.70690723 19.13387192 -1.125 24.5 C0.35893577 27.32542877 0.35893577 27.32542877 3 29 C2.89945313 27.55753906 2.89945313 27.55753906 2.796875 26.0859375 C2.80178585 21.21192375 4.47124913 17.10454811 6.25 12.625 C6.55035156 11.80644531 6.85070312 10.98789063 7.16015625 10.14453125 C7.46308594 9.36722656 7.76601562 8.58992188 8.078125 7.7890625 C8.35043945 7.08475098 8.62275391 6.38043945 8.90332031 5.65478516 C10 4 10 4 12.12011719 3.26318359 C12.74047852 3.17633301 13.36083984 3.08948242 14 3 C14.29041364 8.03383638 13.819466 12.01299235 12.4375 16.875 C10.89584699 22.6073436 10.96037295 27.2050418 12 33 C12.495 35.97 12.495 35.97 13 39 C-2.84 39 -18.68 39 -35 39 C-35 21.72575251 -35 21.72575251 -31 16 C-30.01 15.34 -29.02 14.68 -28 14 C-28 15.65 -28 17.3 -28 19 C-23.73606017 17.57868672 -22.82328126 14.78217001 -20.59765625 11.03125 C-18.78932513 8.73214932 -17.84974825 8.34467797 -15 8 C-14.67 8.66 -14.34 9.32 -14 10 C-14.6492959 11.34187818 -15.31731862 12.67479497 -16 14 C-16 14.99 -16 15.98 -16 17 C-12.73916074 16.29680381 -12.73916074 16.29680381 -11.5 13.1640625 C-11.005 11.99617188 -10.51 10.82828125 -10 9.625 C-5.90243902 0 -5.90243902 0 0 0 Z " fill="#F8F1DD" transform="translate(112,89)"/>
<path d="M0 0 C-0.01160156 0.82242188 -0.02320313 1.64484375 -0.03515625 2.4921875 C-0.04417969 3.60851562 -0.05320313 4.72484375 -0.0625 5.875 C-0.07410156 6.96554688 -0.08570313 8.05609375 -0.09765625 9.1796875 C0.020436 13.79945631 0.54016566 18.4016566 1 23 C-9.89 23 -20.78 23 -32 23 C-32.33 21.35 -32.66 19.7 -33 18 C-33.33 17.01 -33.66 16.02 -34 15 C-34.03954234 12.66700175 -34.04401732 10.33291811 -34 8 C-33.0867395 7.84966309 -33.0867395 7.84966309 -32.1550293 7.69628906 C-22.467351 6.07969039 -9.3226989 0 0 0 Z " fill="#F8F1DD" transform="translate(161,105)"/>
<path d="M0 0 C5.94 0 11.88 0 18 0 C18.70125 2.26875 19.4025 4.5375 20.125 6.875 C22.02822432 12.8079743 24.3938084 17.92721314 27.86328125 23.14453125 C29 25 29 25 29 27 C15.64735367 23.18495819 6.79422059 12.57053916 0 1 C0 0.67 0 0.34 0 0 Z " fill="#0B0A0B" transform="translate(96,0)"/>
<path d="M0 0 C4.71774614 2.3107328 7.21449834 5.64247255 9.375 10.375 C9.7153125 11.426875 9.7153125 11.426875 10.0625 12.5 C8.4125 12.83 6.7625 13.16 5.0625 13.5 C2.0625 9.75 2.0625 9.75 2.0625 7.5 C-0.9075 7.005 -0.9075 7.005 -3.9375 6.5 C-4.185 7.304375 -4.4325 8.10875 -4.6875 8.9375 C-5.9375 11.5 -5.9375 11.5 -8.0625 12.3125 C-8.68125 12.374375 -9.3 12.43625 -9.9375 12.5 C-10.9375 9.5 -10.9375 9.5 -10.30078125 7.52734375 C-9.78064453 6.49287109 -9.78064453 6.49287109 -9.25 5.4375 C-8.91613281 4.74527344 -8.58226562 4.05304687 -8.23828125 3.33984375 C-5.92634929 0.06981386 -3.89834412 -0.66354794 0 0 Z " fill="#111010" transform="translate(147.9375,37.5)"/>
<path d="M0 0 C2.5 2.75 2.5 2.75 4 6 C3.75 8.875 3.75 8.875 3 11 C-0.16115776 9.63016497 -0.9927092 9.0109362 -3 6 C-4.92309422 6.03955898 -4.92309422 6.03955898 -7 7 C-8.78379415 9.98352894 -8.78379415 9.98352894 -10 13 C-11.32 13 -12.64 13 -14 13 C-13.6153821 7.32688601 -13.17694415 4.17694415 -9 0 C-5.74048884 -1.62975558 -3.45293671 -0.89300087 0 0 Z " fill="#0F0E0E" transform="translate(89,38)"/>
</svg>
